<?xml version="1.0" encoding="iso-8859-1"?>
<!-- Generator: Adobe Illustrator 19.0.0, SVG Export Plug-In . SVG Version: 6.00 Build 0)  -->
<svg xmlns="http://www.w3.org/2000/svg" xmlns:xlink="http://www.w3.org/1999/xlink" version="1.1" id="Layer_1" x="0px" y="0px" viewBox="0 0 512 512" style="enable-background:new 0 0 512 512;" xml:space="preserve" width="512px" height="512px">
<g>
	<g>
		<path d="M149.336,320h-96c-5.898,0-10.672,4.781-10.672,10.656c0,5.906,4.773,10.688,10.672,10.688h96    c5.891,0,10.664-4.781,10.664-10.688C160,324.781,155.227,320,149.336,320z" fill="#F7365A"/>
	</g>
</g>
<g>
	<g>
		<path d="M245.336,277.344h-192c-5.898,0-10.672,4.766-10.672,10.656s4.773,10.656,10.672,10.656h192    c5.891,0,10.664-4.766,10.664-10.656S251.227,277.344,245.336,277.344z" fill="#F7365A"/>
	</g>
</g>
<g>
	<g>
		<path d="M437.375,245.336c-2.938,0-5.609,1.195-7.531,3.125L323.969,354.344c-2.453,1.953-4.016,4.953-4.016,8.312    c0,5.906,4.766,10.688,10.672,10.688c2.938,0,5.594-1.203,7.531-3.125l0.062,0.031l106.703-106.703    c1.922-1.93,3.125-4.602,3.125-7.547C448.047,250.109,443.281,245.336,437.375,245.336z" fill="#F7365A"/>
	</g>
</g>
<g>
	<g>
		<path d="M469.344,96H42.664C19.102,96,0,115.102,0,138.664v234.68C0,396.906,19.102,416,42.664,416h426.68    C492.906,416,512,396.906,512,373.344v-234.68C512,115.102,492.906,96,469.344,96z M21.336,160h31.859l-31.859,31.867V160z     M372.562,202.664h-30.156L385.062,160h30.188L372.562,202.664z M445.406,160h30.172l-42.672,42.664H402.75L445.406,160z     M312.235,202.664h-30.172L324.719,160h30.188L312.235,202.664z M251.891,202.664h-30.172L264.391,160h30.172L251.891,202.664z     M191.555,202.664h-30.172L204.047,160h30.172L191.555,202.664z M131.211,202.664h-30.172L143.711,160h30.172L131.211,202.664z     M70.875,202.664H40.703L83.367,160h30.172L70.875,202.664z M490.656,373.344c0,11.75-9.562,21.312-21.312,21.312H42.664    c-11.758,0-21.328-9.562-21.328-21.312V224h469.32V373.344z M490.656,202.664h-27.578l27.578-27.586V202.664z M21.336,138.664    c0-11.758,9.57-21.328,21.328-21.328h426.68c11.75,0,21.312,9.57,21.312,21.328H21.336z" fill="#F7365A"/>
	</g>
</g>
<g>
	<g>
		<path d="M351.953,245.336c-17.672,0-32,14.328-32,32.008c0,17.656,14.328,32,32,32s32-14.344,32-32    C383.953,259.664,369.625,245.336,351.953,245.336z M351.953,288c-5.891,0-10.672-4.781-10.672-10.656    c0-5.891,4.781-10.68,10.672-10.68c5.875,0,10.672,4.789,10.672,10.68C362.625,283.219,357.828,288,351.953,288z" fill="#F7365A"/>
	</g>
</g>
<g>
	<g>
		<path d="M415.953,309.344c-17.672,0-32,14.312-32,32c0,17.656,14.328,32,32,32s32-14.344,32-32    C447.953,323.656,433.625,309.344,415.953,309.344z M415.953,352c-5.891,0-10.672-4.781-10.672-10.656    c0-5.891,4.781-10.688,10.672-10.688c5.875,0,10.672,4.797,10.672,10.688C426.625,347.219,421.828,352,415.953,352z" fill="#F7365A"/>
	</g>
</g>
<g>
</g>
<g>
</g>
<g>
</g>
<g>
</g>
<g>
</g>
<g>
</g>
<g>
</g>
<g>
</g>
<g>
</g>
<g>
</g>
<g>
</g>
<g>
</g>
<g>
</g>
<g>
</g>
<g>
</g>
</svg>
